<?xml version="1.0" encoding="UTF-8" standalone="no"?> <svg width="64" height="64" viewBox="0 0 64 64" fill="none" xmlns="http://www.w3.org/2000/svg">
<path d="M61.18 20.9305C61.3021 20.7755 61.3925 20.598 61.4461 20.4081C61.4996 20.2182 61.5152 20.0196 61.492 19.8237C61.4688 19.6278 61.4072 19.4383 61.3108 19.2662C61.2143 19.0941 61.085 18.9426 60.93 18.8205C60.775 18.6984 60.5975 18.6079 60.4076 18.5544C60.2177 18.5009 60.0192 18.4853 59.8232 18.5085C59.6273 18.5317 59.4378 18.5933 59.2657 18.6897C59.0936 18.7861 58.9421 18.9155 58.82 19.0705C58.7 19.2305 46.54 34.5005 32 34.5005C17.46 34.5005 5.3 19.2305 5.18 19.0705C4.93334 18.7575 4.57247 18.5554 4.17677 18.5085C3.78107 18.4616 3.38295 18.5738 3.07 18.8205C2.75704 19.0671 2.55488 19.428 2.508 19.8237C2.46112 20.2194 2.57334 20.6175 2.82 20.9305C5.08424 23.6972 7.62027 26.2299 10.39 28.4905L6.19 32.6905C6.04971 32.8291 5.93832 32.9941 5.8623 33.1761C5.78628 33.358 5.74713 33.5533 5.74713 33.7505C5.74713 33.9477 5.78628 34.1429 5.8623 34.3249C5.93832 34.5068 6.04971 34.6719 6.19 34.8105C6.47125 35.0914 6.85249 35.2492 7.25 35.2492C7.6475 35.2492 8.02874 35.0914 8.31 34.8105L12.78 30.3505C17.53 33.8305 23.67 37.0305 30.5 37.4505V44.0005C30.5 44.3983 30.658 44.7798 30.9393 45.0611C31.2206 45.3424 31.6022 45.5005 32 45.5005C32.3978 45.5005 32.7794 45.3424 33.0607 45.0611C33.342 44.7798 33.5 44.3983 33.5 44.0005V37.4505C40.33 37.0305 46.5 33.8305 51.22 30.3505L55.69 34.8105C55.9712 35.0914 56.3525 35.2492 56.75 35.2492C57.1475 35.2492 57.5287 35.0914 57.81 34.8105C57.9503 34.6719 58.0617 34.5068 58.1377 34.3249C58.2137 34.1429 58.2529 33.9477 58.2529 33.7505C58.2529 33.5533 58.2137 33.358 58.1377 33.1761C58.0617 32.9941 57.9503 32.8291 57.81 32.6905L53.61 28.4905C56.3797 26.2299 58.9157 23.6972 61.18 20.9305V20.9305Z" fill="black"/>
</svg>
